<svg version="1.1" id="Layer_1" xmlns="http://www.w3.org/2000/svg" xmlns:xlink="http://www.w3.org/1999/xlink" x="0px" y="0px"
	 width="100%" viewBox="0 0 3253 3255" enable-background="new 0 0 3253 3255" xml:space="preserve">
<path fill="#FFFFFF" opacity="1.000000" stroke="none" 
	d="
M3256.000000,1742.000000 
	C3256.000000,2247.200195 3256.000000,2752.400146 3256.000000,3258.000000 
	C2709.944092,3258.000000 2163.887939,3258.000000 1616.935425,3257.483398 
	C1616.011108,3256.623291 1615.983032,3256.279785 1616.106689,3255.013184 
	C1616.279419,3239.902344 1616.384644,3225.714111 1616.297241,3211.526855 
	C1616.208008,3197.029785 1615.929565,3182.533936 1615.350342,3167.279785 
	C1589.967041,3166.365723 1564.967041,3166.209473 1540.095459,3165.997070 
	C1540.223877,3165.941162 1540.163818,3165.667725 1539.533325,3165.107178 
	C1526.506714,3164.433594 1514.110474,3164.320557 1500.819824,3164.158936 
	C1493.326416,3164.016357 1486.727539,3163.922363 1479.519531,3163.278320 
	C1473.178467,3162.554443 1467.446411,3162.380859 1460.866699,3162.159180 
	C1456.055542,3162.016846 1452.092285,3161.922607 1447.537109,3161.284180 
	C1442.534912,3160.562500 1438.124634,3160.385010 1432.813354,3160.159180 
	C1411.048462,3160.064941 1390.511597,3156.552734 1369.930664,3153.857178 
	C1314.196899,3146.556885 1258.917725,3136.565186 1204.279907,3123.341797 
	C1154.833130,3111.375000 1106.051758,3097.082520 1057.920654,3080.503662 
	C1001.272949,3060.990967 945.962646,3038.281982 892.008911,3012.303467 
	C815.106262,2975.274902 741.943909,2931.866943 672.217163,2882.625000 
	C611.816895,2839.969971 554.612305,2793.364990 501.370514,2742.122559 
	C471.172760,2713.058838 442.308624,2682.542480 413.867706,2651.735352 
	C363.246582,2596.902100 317.940155,2537.783203 276.371613,2475.846924 
	C233.661743,2412.210205 196.042297,2345.666016 163.510925,2276.226807 
	C140.204849,2226.479248 119.466660,2175.719482 101.698280,2123.756592 
	C75.758957,2047.898193 55.346684,1970.623779 41.332367,1891.614624 
	C31.821423,1837.994263 24.772121,1784.102905 20.499355,1729.860352 
	C18.831106,1708.681885 18.628490,1687.363281 18.394384,1666.101440 
	C17.851555,1616.800781 17.696318,1567.495850 17.429647,1517.624268 
	C16.407076,1517.403320 15.338804,1517.750732 14.037720,1518.914551 
	C12.534276,1532.909912 10.907568,1546.066284 10.068413,1559.272583 
	C8.408806,1585.390869 7.184699,1611.536865 5.423798,1638.008179 
	C4.580007,1638.889648 4.465372,1639.503662 4.564492,1640.140869 
	C4.405837,1640.094482 4.075850,1640.075317 3.558675,1640.007202 
	C2.694333,1639.959351 2.347166,1639.979614 2.000000,1640.000000 
	C2.000000,1094.143799 2.000000,548.287720 2.000000,2.000000 
	C508.056000,2.000000 1014.112122,2.000000 1521.033936,2.413082 
	C1521.899536,2.826163 1521.842041,3.656420 1520.954346,3.816973 
	C1513.474487,4.053795 1506.882324,4.130064 1499.414551,4.110385 
	C1493.650146,4.618987 1488.761108,5.223537 1482.993896,5.938532 
	C1470.581177,6.706689 1459.046387,7.364354 1447.511719,8.022312 
	C1447.178955,8.041291 1446.842407,8.037541 1446.514282,8.087712 
	C1429.252075,10.726826 1412.016968,13.557945 1394.724121,15.977626 
	C1348.921875,22.386505 1303.452271,30.656599 1258.381592,40.955067 
	C1188.572388,56.906193 1120.136230,77.434700 1053.335693,103.372711 
	C982.845581,130.743301 914.440979,162.556030 848.227356,199.042343 
	C781.078552,236.043900 717.019531,277.810883 656.086914,324.377808 
	C610.846008,358.952515 567.770508,396.053650 526.744690,435.493256 
	C495.778961,465.261688 466.390900,496.567444 438.106964,528.925049 
	C398.220856,574.555908 361.387512,622.517334 326.973419,672.373535 
	C294.997833,718.697205 265.944794,766.817932 238.607422,815.990417 
	C233.961533,824.347229 229.790070,832.967773 225.045914,842.150696 
	C251.068787,857.336975 276.209381,872.008423 302.264557,887.213562 
	C307.195618,878.879883 311.957855,871.381653 316.187531,863.594055 
	C343.859070,812.645203 374.694397,763.691406 408.105286,716.316528 
	C457.295715,646.567139 512.221680,581.592285 571.886292,520.678894 
	C596.547974,495.501038 622.534485,471.575775 648.593323,447.821198 
	C701.052856,400.000336 757.280945,356.933868 816.265137,317.474609 
	C879.157959,275.400543 944.940430,238.426849 1013.389893,206.171524 
	C1062.754395,182.909607 1113.216919,162.330383 1164.709961,144.312683 
	C1237.955566,118.683662 1312.720459,98.637978 1388.997192,84.318535 
	C1411.776978,80.042099 1434.589233,75.914001 1457.454468,72.127617 
	C1467.829834,70.409470 1478.365967,69.645973 1488.837646,68.528557 
	C1503.845825,66.927048 1518.861572,65.397957 1534.695068,63.927174 
	C1539.161499,63.468056 1542.807007,62.919712 1547.299805,62.285046 
	C1552.699219,62.025345 1557.251343,61.851959 1562.692017,61.795483 
	C1569.204346,61.398563 1574.828369,60.884731 1581.351074,60.281639 
	C1591.434448,60.021191 1600.618774,59.850002 1610.749268,59.797581 
	C1623.098633,59.914711 1634.502075,59.913074 1646.848145,59.946304 
	C1675.321533,59.901978 1702.852051,59.822784 1731.281982,59.821587 
	C1741.516724,59.825073 1750.852173,59.750557 1761.059692,59.831146 
	C1767.804077,60.114689 1773.676270,60.243130 1780.161743,60.927288 
	C1785.245972,61.547333 1789.717041,61.611660 1795.054077,61.831139 
	C1802.131958,62.659172 1808.333008,63.463375 1814.558105,63.975552 
	C1825.096436,64.842636 1835.700806,65.105209 1846.185913,66.376419 
	C1865.503784,68.718506 1884.802002,71.310165 1904.025391,74.327095 
	C1952.631470,81.955460 2000.940796,91.158829 2048.702148,103.049530 
	C2125.622070,122.199638 2200.629883,147.147858 2273.683350,177.908508 
	C2323.068848,198.703217 2371.491699,221.580551 2418.248535,247.769058 
	C2453.643311,267.593719 2488.470459,288.432037 2523.572754,308.780090 
	C2525.016357,309.617004 2526.691895,310.054352 2528.259277,310.677826 
	C2528.616943,310.108398 2528.974365,309.538971 2529.332031,308.969574 
	C2524.562988,305.005676 2520.060303,300.656433 2514.978760,297.144745 
	C2493.079590,282.011139 2471.257812,266.743439 2448.957031,252.216766 
	C2382.199951,208.730850 2312.311523,170.918991 2239.607666,138.362549 
	C2165.122070,105.008278 2088.454590,77.698647 2009.688354,56.302193 
	C1948.976440,39.810127 1887.574951,26.602793 1825.245361,17.919357 
	C1808.539917,15.592041 1791.745605,13.901022 1774.988892,11.945331 
	C1757.370605,9.889100 1739.748291,7.865760 1721.530762,5.281657 
	C1716.481201,4.615071 1712.028931,4.494865 1706.702148,4.279470 
	C1699.918457,4.052842 1694.009155,3.921402 1688.044434,3.344174 
	C1687.989014,2.898386 1688.000000,2.000000 1688.000000,2.000000 
	C2210.528320,2.000000 2733.056641,2.000000 3256.000000,2.000000 
	C3256.000000,527.389343 3256.000000,1052.778809 3255.546387,1579.085205 
	C3255.092773,1580.002319 3254.190430,1579.907349 3254.112549,1578.980225 
	C3253.467041,1565.782715 3253.223389,1553.486816 3252.261475,1541.247314 
	C3250.520996,1519.105469 3248.484375,1496.984375 3246.333740,1474.877808 
	C3241.889893,1429.197266 3233.198975,1384.188354 3223.300049,1339.467529 
	C3204.675293,1255.325562 3179.894043,1173.004761 3148.037842,1092.853271 
	C3125.655029,1036.537964 3100.342041,981.570374 3071.423828,928.355774 
	C3054.600342,897.397644 3036.051025,867.370544 3017.991211,837.095764 
	C3012.395508,827.715515 3009.804443,827.338806 3000.208740,831.838074 
	C2998.702637,832.544250 2997.189453,833.249756 2995.742676,834.067017 
	C2977.790283,844.208923 2959.830566,854.338562 2941.925049,864.563293 
	C2939.147949,866.149048 2936.633545,868.194946 2933.412842,870.434937 
	C2939.662109,881.304016 2945.305420,891.422913 2951.229980,901.374512 
	C2990.254639,966.923157 3024.634521,1034.808105 3054.064697,1105.197266 
	C3075.750488,1157.064453 3094.607178,1209.928711 3110.502197,1263.858398 
	C3129.116699,1327.014160 3143.749268,1391.079102 3154.012695,1456.102661 
	C3158.097412,1481.981567 3161.332031,1508.009277 3164.322266,1534.041748 
	C3167.197266,1559.070557 3169.597656,1584.166260 3171.553955,1609.283447 
	C3172.869141,1626.168213 3173.549072,1643.138916 3173.631592,1660.075439 
	C3173.803467,1695.358398 3173.390869,1730.644409 3172.850098,1766.230225 
	C3172.094238,1767.103516 3172.019531,1767.714233 3172.280518,1769.275391 
	C3171.648926,1781.787720 3171.317383,1793.417114 3170.274658,1804.982300 
	C3167.802734,1832.395630 3165.196533,1859.800171 3162.273926,1887.168701 
	C3157.336426,1933.404663 3149.164062,1979.153442 3139.351807,2024.549316 
	C3122.764404,2101.287842 3100.891846,2176.548828 3073.347656,2250.113281 
	C3049.760742,2313.109619 3022.404053,2374.426025 2990.583740,2433.696289 
	C2957.014404,2496.224365 2919.114258,2556.047119 2877.364014,2613.448730 
	C2833.079590,2674.334961 2784.576172,2731.682861 2731.646729,2785.154541 
	C2705.224121,2811.848389 2677.563477,2837.389404 2649.505127,2862.376709 
	C2571.221191,2932.093262 2486.017822,2992.314209 2395.540283,3045.157471 
	C2379.743408,3054.383545 2364.087891,3063.853027 2348.428711,3073.312500 
	C2346.468750,3074.496582 2344.890381,3076.311768 2343.135254,3077.834473 
	C2343.508301,3078.459717 2343.881348,3079.084961 2344.254395,3079.709961 
	C2347.158936,3078.607666 2350.178711,3077.738037 2352.949951,3076.366455 
	C2376.195068,3064.859863 2399.583008,3053.622559 2422.569336,3041.616943 
	C2476.563232,3013.416504 2528.917480,2982.478271 2579.408447,2948.305664 
	C2655.420166,2896.859619 2725.117676,2837.880371 2790.504883,2773.664307 
	C2805.231689,2759.201416 2819.600830,2744.357910 2833.746582,2729.324219 
	C2854.251465,2707.532471 2875.044434,2685.961670 2894.575195,2663.313721 
	C2937.855469,2613.126709 2976.925537,2559.751953 3012.689941,2503.939453 
	C3052.786377,2441.367188 3088.293213,2376.348389 3118.853516,2308.584473 
	C3159.439697,2218.589111 3190.913574,2125.520996 3214.121582,2029.613403 
	C3224.590576,1986.350220 3233.443359,1942.734985 3239.516846,1898.654785 
	C3244.450439,1862.851807 3248.093750,1826.859985 3251.709961,1790.891724 
	C3253.335938,1774.721069 3253.499512,1758.403442 3254.750244,1742.172607 
	C3255.173828,1742.192749 3256.000000,1742.000000 3256.000000,1742.000000 
M1352.909180,920.730652 
	C1345.844971,920.101746 1338.725220,918.412231 1330.251221,922.052795 
	C1305.613281,925.138550 1283.458130,934.604431 1263.364868,948.852295 
	C1230.376099,972.244263 1208.831055,1004.279175 1196.803223,1042.329468 
	C1184.833252,1080.196533 1185.625610,1118.064087 1205.372192,1153.516113 
	C1224.146484,1187.222900 1254.053833,1204.115479 1292.369995,1205.946411 
	C1298.568237,1206.242676 1304.892456,1204.642334 1311.112061,1203.632202 
	C1343.615723,1198.353271 1371.494873,1183.880615 1395.154419,1161.098145 
	C1414.448242,1142.519653 1427.458008,1119.846924 1437.817749,1095.468994 
	C1444.770142,1079.108643 1448.499390,1061.852783 1449.466675,1044.260132 
	C1450.494263,1025.566040 1447.174438,1007.264404 1440.778076,989.555481 
	C1426.056763,948.799377 1396.713745,926.873352 1352.909180,920.730652 
M1783.686523,2612.091309 
	C1783.598389,2596.744385 1783.510376,2581.397217 1783.590698,2565.047852 
	C1783.158936,2564.547363 1782.727173,2564.046631 1782.289307,2561.729980 
	C1781.628540,2548.465088 1781.521973,2535.144287 1780.185791,2521.947754 
	C1777.779907,2498.186523 1775.457520,2474.366699 1771.625610,2450.811279 
	C1764.429443,2406.575195 1750.775024,2364.398926 1729.934082,2324.484131 
	C1698.860840,2264.972168 1650.428467,2224.296875 1590.884033,2196.211426 
	C1551.802979,2177.777832 1511.666992,2161.578613 1471.976929,2144.439941 
	C1446.737915,2133.541748 1433.385986,2112.867920 1434.062500,2085.637451 
	C1434.252686,2077.979492 1434.198853,2070.315918 1434.274902,2062.654785 
	C1434.324707,2057.634766 1433.212158,2053.363525 1426.712646,2051.624512 
	C1400.028076,2071.727051 1376.052612,2094.638672 1360.571045,2125.515137 
	C1347.869629,2150.846680 1350.178345,2174.720947 1365.088135,2198.274170 
	C1373.633179,2211.773193 1385.757080,2221.644531 1397.339844,2232.100830 
	C1432.245605,2263.612305 1471.064697,2290.072998 1508.713135,2318.037354 
	C1562.410278,2357.922363 1615.141724,2398.867920 1661.402832,2447.579834 
	C1701.835693,2490.154541 1735.780029,2537.003174 1759.779663,2590.791748 
	C1763.574829,2599.297607 1767.592773,2607.719971 1771.934326,2615.956299 
	C1773.181763,2618.322998 1775.805420,2621.226318 1778.016235,2621.422363 
	C1779.768311,2621.577637 1781.854004,2617.971924 1783.961670,2614.970215 
	C1783.837036,2614.632568 1783.712280,2614.294678 1783.686523,2612.091309 
M131.752945,1529.772705 
	C131.685074,1497.840698 133.898239,1466.043701 137.761414,1434.367676 
	C141.819641,1401.092163 145.201416,1367.694458 150.598557,1334.630859 
	C159.061310,1282.787109 170.923431,1231.625122 185.165527,1181.034790 
	C199.423279,1130.389038 217.464600,1081.038940 235.921494,1031.823608 
	C239.595703,1022.026367 242.869354,1012.078857 246.327713,1002.200562 
	C245.715561,1001.886780 245.103409,1001.572998 244.491257,1001.259216 
	C243.091751,1002.879150 241.320221,1004.307434 240.366867,1006.157288 
	C238.083847,1010.587097 236.227341,1015.234680 234.125671,1019.760437 
	C214.220978,1062.623779 195.681473,1106.015259 179.461380,1150.462524 
	C148.486053,1235.342896 125.347900,1322.246216 110.422592,1411.289551 
	C102.078987,1461.067017 96.261490,1511.213013 94.110886,1561.690063 
	C92.964020,1588.608032 91.996895,1615.554565 91.915527,1642.491089 
	C91.842239,1666.756958 93.340683,1691.023193 93.687256,1715.295898 
	C94.119225,1745.547485 95.672440,1775.718384 99.767616,1805.693359 
	C104.302505,1838.886841 108.483688,1872.163574 114.345604,1905.132690 
	C124.767853,1963.750244 139.354736,2021.411011 157.267273,2078.211670 
	C172.783218,2127.412842 190.741669,2175.673584 211.248123,2223.039795 
	C233.896896,2275.354248 259.591309,2326.084473 288.280609,2375.296875 
	C321.680603,2432.590332 358.810669,2487.372559 399.773926,2539.563965 
	C431.850677,2580.432861 465.697723,2619.788818 502.418152,2656.490967 
	C529.940918,2684.000000 558.646790,2710.367188 587.535767,2736.457031 
	C625.603149,2770.835693 666.467407,2801.762451 708.434265,2831.220215 
	C774.819336,2877.819092 844.910095,2918.061279 918.102661,2952.920898 
	C956.566223,2971.239746 995.580750,2988.308350 1035.727905,3002.655273 
	C1047.558716,3006.883301 1059.538086,3010.695801 1071.003418,3014.548584 
	C1082.967285,2999.385498 1098.786621,2957.484131 1096.937012,2946.036621 
	C1088.970825,2942.774170 1080.708984,2939.255127 1072.348633,2935.988281 
	C1009.654114,2911.489014 948.257812,2884.209473 889.112732,2851.930664 
	C835.552246,2822.699707 784.006958,2790.372559 734.482056,2754.714844 
	C680.903259,2716.138672 630.280579,2674.031006 582.716614,2628.320801 
	C535.168579,2582.625732 490.344543,2534.391846 449.005768,2482.899658 
	C393.816132,2414.155029 345.391388,2340.996826 303.776611,2263.346191 
	C276.394562,2212.253174 252.159195,2159.676758 231.250671,2105.568359 
	C202.067291,2030.045654 178.331528,1952.951416 161.385559,1873.707520 
	C148.380676,1812.893311 139.984192,1751.471313 134.417694,1689.630737 
	C132.215775,1665.168701 130.976532,1640.578247 130.417465,1616.020874 
	C129.795685,1588.708984 130.448975,1561.368042 131.257187,1533.405273 
	C131.669113,1532.869019 131.828888,1532.265747 131.752945,1529.772705 
M1656.015137,190.206146 
	C1687.970215,190.232391 1719.925293,190.258652 1753.136108,191.364960 
	C1760.810425,191.433212 1768.484863,191.501465 1777.951050,191.834045 
	C1785.559326,192.399811 1793.173218,192.898727 1800.774780,193.543869 
	C1823.919922,195.508148 1847.168579,196.701157 1870.177734,199.715317 
	C1907.694946,204.629944 1945.256714,209.666840 1982.430786,216.623352 
	C2032.079956,225.914383 2081.086182,238.213547 2129.333008,253.375488 
	C2175.696533,267.945618 2221.395264,284.251740 2266.116699,303.349457 
	C2311.757080,322.839661 2356.547363,344.067688 2399.975342,368.053772 
	C2448.072266,394.618713 2494.625977,423.677948 2539.591797,455.331757 
	C2591.900635,492.154755 2641.692627,532.116028 2688.282471,575.838989 
	C2718.850098,604.525879 2748.115723,634.700378 2776.625000,665.450073 
	C2801.235107,691.994324 2823.949707,720.295654 2847.514404,747.809753 
	C2851.899170,752.929382 2856.342285,757.999268 2860.758301,763.092163 
	C2861.409424,762.683777 2862.060547,762.275391 2862.711670,761.866943 
	C2861.375488,759.039062 2860.362061,755.995911 2858.645020,753.421936 
	C2852.550537,744.285645 2846.315674,735.238892 2839.957031,726.283875 
	C2799.439697,669.224243 2754.610596,615.717957 2706.123291,565.308289 
	C2661.090088,518.489563 2613.467773,474.440521 2562.592285,433.982269 
	C2522.442871,402.053772 2480.807861,372.189972 2437.452881,344.765533 
	C2376.864990,306.440308 2313.671875,273.005493 2248.015625,244.201782 
	C2188.510986,218.096848 2127.534180,196.093307 2065.118408,178.052383 
	C2007.858032,161.501617 1949.786621,148.494476 1890.937500,139.148422 
	C1863.384399,134.772583 1835.658569,131.422562 1807.951782,128.103500 
	C1795.432129,126.603767 1782.767334,126.314316 1768.818604,124.539146 
	C1761.153931,124.421036 1753.489258,124.302925 1743.976196,124.088226 
	C1732.029663,123.956284 1720.083252,123.824333 1706.849487,122.621315 
	C1705.547485,122.417709 1704.245728,122.037514 1702.943604,122.036232 
	C1667.084351,122.000977 1631.225098,121.970528 1595.366211,122.073967 
	C1592.863647,122.081177 1590.364136,123.128769 1586.020630,123.935959 
	C1559.143433,125.543854 1532.152466,126.112968 1505.419434,129.038635 
	C1476.041504,132.253769 1446.666016,136.480209 1417.711426,142.347870 
	C1373.719238,151.262970 1329.871460,161.108032 1286.364868,172.144913 
	C1235.044556,185.164017 1185.072144,202.635513 1135.727783,221.849289 
	C1074.849854,245.554062 1015.688293,272.957947 958.782349,305.036987 
	C891.105591,343.187775 826.941956,386.704712 765.746155,434.523468 
	C743.783752,451.684967 722.777161,470.069611 701.104736,488.086884 
	C702.761047,490.469421 703.583069,491.877258 704.617981,493.105743 
	C715.327026,505.818939 725.935791,518.620178 736.840149,531.164368 
	C748.974365,545.123291 749.399780,545.380920 763.760315,533.326294 
	C811.235291,493.474731 860.876465,456.622986 913.239563,423.421417 
	C967.539978,388.991455 1023.319885,357.297607 1081.471069,329.751099 
	C1126.015137,308.650330 1171.337036,289.536926 1217.728027,272.904877 
	C1307.848145,240.595047 1400.359619,217.838821 1495.079712,204.308243 
	C1539.777344,197.923309 1584.750488,193.693710 1631.732666,191.965668 
	C1639.214966,191.463669 1646.697266,190.961670 1656.015137,190.206146 
M2306.181396,499.239166 
	C2306.249023,497.573944 2306.270996,495.905426 2306.391846,494.244049 
	C2307.665283,476.702759 2309.059326,459.169189 2310.155762,441.616913 
	C2310.385498,437.938019 2311.019287,433.724670 2306.407715,430.142548 
	C2304.178955,434.022888 2301.752441,437.207245 2300.397217,440.796143 
	C2295.821045,452.917206 2291.272461,465.069672 2287.348633,477.412140 
	C2274.908203,516.546997 2257.158691,553.461548 2239.624756,590.393127 
	C2223.754883,623.819153 2204.449707,655.472961 2182.581299,685.307739 
	C2165.103027,709.153442 2146.699951,732.434082 2127.236816,754.678711 
	C2110.404785,773.916138 2092.215332,792.121704 2073.342529,809.379944 
	C2047.823486,832.716003 2021.866699,855.716125 1994.682129,877.057068 
	C1947.185181,914.344360 1895.625854,945.610046 1842.657715,974.491638 
	C1786.267212,1005.239258 1729.487671,1035.279541 1673.287842,1066.369751 
	C1625.529053,1092.790405 1577.922363,1119.541016 1531.022827,1147.447021 
	C1464.334106,1187.127686 1403.538940,1234.264404 1351.632812,1292.516968 
	C1317.402588,1330.932373 1297.675049,1375.538086 1292.503052,1426.224243 
	C1287.290405,1477.310059 1301.552734,1523.690186 1331.212402,1565.401245 
	C1342.252319,1580.927368 1356.687378,1592.269287 1374.796387,1599.929443 
	C1376.485474,1596.677490 1378.303345,1593.900757 1379.430542,1590.867310 
	C1382.441040,1582.766235 1385.101074,1574.535889 1387.996338,1566.390991 
	C1397.341187,1540.103149 1405.503662,1513.452881 1419.140381,1488.754028 
	C1441.659912,1447.966553 1469.171387,1411.047119 1501.117676,1377.289185 
	C1540.884033,1335.267456 1586.011475,1299.605957 1632.873535,1265.973389 
	C1691.609009,1223.819336 1752.449707,1184.835571 1813.262573,1145.803955 
	C1868.462158,1110.375122 1923.549438,1074.770996 1976.258179,1035.662109 
	C2019.870361,1003.302917 2061.665283,968.721436 2099.947266,930.175842 
	C2119.855957,910.130127 2138.758057,889.022278 2157.247803,867.644409 
	C2188.076904,832.000488 2213.700684,792.710144 2235.246582,750.840759 
	C2260.481201,701.803040 2278.891602,650.267944 2290.996338,596.418701 
	C2298.074219,564.933167 2302.997559,533.165955 2306.181396,499.239166 
M3108.246826,1697.000000 
	C3108.808350,1660.388916 3106.672852,1623.881226 3104.022461,1587.394409 
	C3103.228271,1576.462402 3102.720703,1565.492310 3101.424072,1554.618042 
	C3098.556885,1530.576172 3095.852051,1506.490112 3091.984619,1482.599487 
	C3088.537598,1461.305664 3083.656006,1440.242065 3079.272949,1419.104858 
	C3078.907227,1417.341431 3077.515869,1415.790649 3076.489746,1413.940186 
	C3053.476562,1419.121704 3030.549316,1422.404297 3007.506592,1428.453735 
	C3010.047852,1444.823486 3012.688477,1460.158203 3014.766846,1475.568604 
	C3019.243896,1508.767212 3024.205566,1541.928833 3027.463379,1575.252930 
	C3029.593262,1597.042725 3029.084473,1619.090820 3029.748291,1641.023438 
	C3029.798584,1642.688721 3029.775635,1644.356323 3029.781982,1646.022827 
	C3029.971680,1696.628052 3031.819092,1747.247681 3028.262451,1797.818359 
	C3026.818115,1818.356323 3025.495605,1838.903687 3024.265625,1859.455688 
	C3022.278809,1892.653320 3017.560791,1925.544922 3011.449707,1958.148438 
	C2996.922607,2035.655151 2978.219482,2112.125732 2951.791748,2186.564697 
	C2927.368164,2255.358398 2898.487061,2322.160889 2864.146484,2386.620605 
	C2837.188232,2437.222656 2807.445801,2486.061523 2774.915771,2533.282959 
	C2730.824707,2597.286621 2681.484375,2656.992920 2627.729736,2712.973633 
	C2601.930420,2739.841309 2574.386963,2765.063721 2547.142090,2790.505371 
	C2516.971436,2818.678955 2484.849609,2844.556152 2451.936279,2869.477051 
	C2390.744629,2915.810059 2326.330566,2957.127930 2258.248779,2992.487061 
	C2224.892822,3009.811035 2190.757080,3025.759521 2156.341064,3040.890381 
	C2087.060303,3071.350342 2015.351807,3094.989258 1942.147095,3114.089355 
	C1887.079712,3128.457031 1831.332642,3139.559570 1775.136353,3148.473389 
	C1773.580200,3148.720215 1772.167114,3149.868164 1770.687378,3150.595947 
	C1785.699097,3151.365967 1800.354004,3151.218506 1814.774780,3149.305420 
	C1849.979248,3144.635498 1885.171875,3139.722412 1920.191895,3133.850098 
	C1967.748779,3125.875488 2014.680542,3114.879639 2061.064453,3101.672363 
	C2114.204102,3086.541992 2166.460449,3068.822510 2217.552979,3047.721191 
	C2281.956787,3021.121826 2344.050537,2989.912354 2403.945801,2954.340332 
	C2453.512207,2924.902588 2501.136230,2892.583740 2546.796875,2857.369873 
	C2586.602051,2826.671875 2624.865967,2794.115234 2660.908203,2759.136963 
	C2687.642578,2733.191895 2713.564941,2706.286133 2738.276367,2678.414062 
	C2765.397217,2647.824463 2791.354736,2616.140381 2816.662109,2584.021240 
	C2850.690674,2540.832520 2881.391602,2495.224121 2909.570801,2448.018066 
	C2937.396240,2401.404785 2962.307129,2353.240967 2984.354492,2303.576416 
	C3003.404541,2260.663818 3020.489258,2216.996582 3035.197021,2172.460693 
	C3055.004150,2112.482910 3071.697021,2051.604736 3083.126709,1989.420166 
	C3088.046387,1962.654297 3092.237061,1935.739990 3096.095947,1908.798096 
	C3098.774658,1890.094727 3100.599609,1871.254395 3102.304443,1852.429688 
	C3104.398682,1829.303467 3106.742188,1806.157715 3107.569336,1782.969971 
	C3108.567383,1755.007568 3108.087402,1726.992310 3108.246826,1697.000000 
M1254.354858,2074.061279 
	C1257.055908,2094.905762 1264.873047,2113.830322 1276.108154,2131.418213 
	C1287.350220,2149.016357 1299.270142,2166.092285 1314.383911,2180.184570 
	C1319.457397,2178.232666 1320.460083,2174.882812 1320.290771,2170.965576 
	C1320.003784,2164.325684 1320.054932,2157.632812 1319.195312,2151.062988 
	C1316.720215,2132.147217 1318.959595,2113.940918 1326.796021,2096.554688 
	C1335.508301,2077.225098 1349.857422,2062.522217 1366.402344,2049.827393 
	C1395.201416,2027.729980 1427.970947,2013.035767 1461.447632,1999.862183 
	C1523.062744,1975.615845 1586.884888,1957.994995 1649.854248,1937.832886 
	C1701.268311,1921.370728 1752.016846,1903.429688 1799.850708,1878.037109 
	C1818.799805,1867.977783 1836.906250,1857.047852 1849.377441,1838.794678 
	C1869.618286,1809.169556 1873.499756,1778.557129 1856.941284,1745.742432 
	C1845.562256,1723.192139 1831.044556,1703.080444 1813.184814,1685.458740 
	C1795.420776,1667.931030 1776.835327,1651.239258 1758.851929,1633.929810 
	C1734.814697,1610.793457 1708.819214,1590.122192 1681.282959,1571.350830 
	C1678.145264,1569.211670 1674.684570,1567.546387 1670.662231,1565.256348 
	C1669.028198,1579.312134 1667.958618,1591.874756 1666.048584,1604.308350 
	C1660.375122,1641.241089 1647.076538,1675.323975 1622.158813,1703.303711 
	C1603.187622,1724.606323 1582.111084,1744.158325 1560.930664,1763.340210 
	C1528.296997,1792.894897 1491.319336,1816.813843 1455.313721,1841.947266 
	C1405.686035,1876.588867 1354.766235,1909.531372 1310.507812,1951.260864 
	C1299.860718,1961.299561 1288.888184,1971.206421 1279.627808,1982.459595 
	C1258.217407,2008.477539 1251.327515,2039.074585 1254.354858,2074.061279 
M1800.268311,1201.304443 
	C1758.183350,1229.431885 1715.606567,1256.856079 1674.136841,1285.862915 
	C1621.194824,1322.894531 1569.823608,1362.045166 1525.019165,1408.994995 
	C1502.707642,1432.375000 1482.017578,1457.082886 1465.055786,1484.748169 
	C1433.014038,1537.009399 1425.516724,1592.598389 1442.266602,1651.468262 
	C1451.828735,1685.075562 1470.437012,1713.729736 1491.928955,1740.726196 
	C1493.064941,1742.153198 1495.030518,1742.919556 1497.776001,1744.786377 
	C1500.584717,1739.257202 1503.569580,1734.506714 1505.460571,1729.354614 
	C1507.509521,1723.772339 1508.658813,1717.843140 1509.994141,1712.018066 
	C1523.387207,1653.590088 1547.817749,1600.002808 1581.070435,1550.327271 
	C1618.776733,1493.998657 1665.224609,1445.537842 1717.241211,1402.519287 
	C1772.608521,1356.729858 1829.155518,1312.369995 1884.830566,1266.948608 
	C1917.299561,1240.459351 1949.087280,1213.219971 1977.377197,1182.031250 
	C2004.308105,1152.340576 2028.626831,1120.810181 2049.294678,1086.531372 
	C2066.326416,1058.282959 2081.563721,1029.086792 2091.272705,997.359009 
	C2093.279053,990.801941 2094.701416,984.066162 2096.393066,977.412842 
	C2095.686279,976.937134 2094.979492,976.461365 2094.272461,975.985657 
	C2090.008301,979.478210 2085.456787,982.677124 2081.532715,986.517273 
	C2068.457520,999.312683 2055.594971,1012.325806 2042.673462,1025.277954 
	C2013.413818,1054.606934 1980.957764,1079.988281 1946.624512,1103.046143 
	C1898.245483,1135.537109 1849.845337,1167.997070 1800.268311,1201.304443 
M2015.531738,2161.472168 
	C1998.714355,2144.382568 1981.947021,2127.243408 1965.027100,2110.255859 
	C1962.426147,2107.644531 1959.124023,2105.731445 1956.146240,2103.495361 
	C1955.402832,2103.922607 1954.659424,2104.349854 1953.915894,2104.777100 
	C1954.509521,2111.898438 1954.983643,2119.031982 1955.717651,2126.138672 
	C1958.835571,2156.326660 1965.697510,2185.698730 1975.157349,2214.495361 
	C1994.196411,2272.452393 2022.485229,2325.863770 2056.078613,2376.478271 
	C2098.032227,2439.689453 2140.971436,2502.246094 2183.026611,2565.390625 
	C2204.432861,2597.530762 2223.310303,2631.164551 2239.565674,2666.271973 
	C2264.379883,2719.864014 2281.204102,2775.465332 2283.803955,2834.853027 
	C2284.083740,2841.247314 2286.262695,2846.765869 2292.644531,2851.342773 
	C2293.979004,2846.856201 2295.269531,2843.486816 2295.969971,2839.998779 
	C2299.106934,2824.377197 2302.198242,2808.744629 2305.080322,2793.074463 
	C2311.631592,2757.455811 2315.731934,2721.494385 2317.541504,2685.374268 
	C2319.740479,2641.476074 2318.010254,2597.683105 2310.320557,2554.235107 
	C2302.782227,2511.642822 2289.354980,2471.158203 2268.297363,2433.317139 
	C2245.649902,2392.618896 2215.976807,2357.140137 2184.800049,2322.941406 
	C2151.362549,2286.262695 2114.513672,2253.024658 2077.925293,2219.549316 
	C2057.310547,2200.688232 2036.986694,2181.509277 2015.531738,2161.472168 
M1685.602295,1970.515991 
	C1680.712036,1972.619141 1675.889771,1974.902832 1670.913208,1976.777100 
	C1665.461792,1978.829834 1662.632202,1982.447632 1663.847656,1988.238525 
	C1664.789062,1992.724854 1666.008057,1997.268188 1667.929321,2001.402466 
	C1670.018066,2005.897461 1673.001831,2009.987427 1675.697021,2014.188599 
	C1713.423584,2072.996826 1757.582275,2126.452637 1808.863647,2173.958252 
	C1826.678223,2190.461182 1844.067139,2207.482666 1862.621948,2223.114502 
	C1899.758423,2254.401123 1937.548340,2284.912598 1975.130981,2315.667725 
	C1977.766357,2317.824463 1980.913330,2319.355469 1984.204956,2321.416992 
	C1987.689209,2313.692871 1986.130371,2307.915771 1983.056274,2302.098877 
	C1964.982422,2267.896729 1950.273560,2232.260986 1937.625732,2195.726318 
	C1915.482788,2131.763672 1902.187622,2065.668945 1890.069214,1999.293945 
	C1883.689819,1964.352905 1877.718018,1929.337402 1871.434326,1894.378662 
	C1870.833374,1891.034912 1869.318481,1887.855591 1868.037720,1884.032593 
	C1858.980957,1889.835693 1851.125732,1894.834595 1843.305420,1899.887207 
	C1825.671631,1911.280029 1807.839478,1922.367065 1788.271240,1930.179199 
	C1754.596436,1943.623047 1720.804932,1956.774658 1685.602295,1970.515991 
z"/>
<path fill="#FFFFFF" opacity="1.000000" stroke="none" 
	d="
M1486.000000,3258.000000 
	C991.471985,3258.000000 496.943939,3258.000000 2.000000,3258.000000 
	C2.000000,2763.277344 2.000000,2268.554443 2.591456,1772.819580 
	C3.577041,1771.742310 3.971170,1771.677124 4.691905,1771.839111 
	C5.018511,1772.066406 5.739698,1772.402954 5.713185,1773.314453 
	C7.665616,1803.686401 9.361691,1833.169067 11.690495,1862.601929 
	C15.095751,1905.638916 21.851107,1948.221802 29.527454,1990.690063 
	C40.535519,2051.590576 55.477451,2111.501953 74.145500,2170.468750 
	C101.611885,2257.226562 136.446289,2340.933594 178.610535,2421.617432 
	C204.521591,2471.199707 232.778824,2519.348877 263.413605,2566.155273 
	C311.442352,2639.537598 365.767212,2707.955566 425.807159,2771.781982 
	C447.675079,2795.029297 470.989349,2816.936279 494.005676,2839.078369 
	C530.957092,2874.625977 570.542786,2907.114746 611.358398,2938.082031 
	C684.681030,2993.713623 762.581848,3042.134521 844.250244,3084.498535 
	C889.130981,3107.779785 934.981812,3129.018799 981.888367,3147.911133 
	C1065.019409,3181.394043 1150.375977,3207.594727 1238.221313,3225.504150 
	C1262.912964,3230.538330 1287.631348,3235.498047 1312.459595,3239.784668 
	C1327.355347,3242.356934 1342.470215,3243.719971 1357.517700,3245.337402 
	C1374.224731,3247.133301 1390.967041,3248.599854 1408.283569,3250.754883 
	C1412.644653,3251.425537 1416.416260,3251.550537 1421.013184,3251.828613 
	C1425.742310,3252.111572 1429.645752,3252.241699 1434.159668,3252.926270 
	C1439.219727,3253.599121 1443.669434,3253.717773 1448.979004,3253.949707 
	C1454.457397,3254.112061 1459.075684,3254.160889 1464.324707,3254.770996 
	C1471.959961,3255.550049 1478.964600,3255.767334 1485.964722,3256.051758 
	C1485.960205,3256.118408 1485.868286,3256.215332 1485.887939,3256.662598 
	C1485.907471,3257.109619 1486.000000,3258.000000 1486.000000,3258.000000 
z"/>
<path fill="#5A616E" opacity="1.000000" stroke="none" 
	d="
M1433.549316,3252.371826 
	C1429.645752,3252.241699 1425.742310,3252.111572 1420.429932,3251.288086 
	C1415.245361,3250.466309 1411.469604,3250.338135 1407.693970,3250.209961 
	C1390.967041,3248.599854 1374.224731,3247.133301 1357.517700,3245.337402 
	C1342.470215,3243.719971 1327.355347,3242.356934 1312.459595,3239.784668 
	C1287.631348,3235.498047 1262.912964,3230.538330 1238.221313,3225.504150 
	C1150.375977,3207.594727 1065.019409,3181.394043 981.888367,3147.911133 
	C934.981812,3129.018799 889.130981,3107.779785 844.250244,3084.498535 
	C762.581848,3042.134521 684.681030,2993.713623 611.358398,2938.082031 
	C570.542786,2907.114746 530.957092,2874.625977 494.005676,2839.078369 
	C470.989349,2816.936279 447.675079,2795.029297 425.807159,2771.781982 
	C365.767212,2707.955566 311.442352,2639.537598 263.413605,2566.155273 
	C232.778824,2519.348877 204.521591,2471.199707 178.610535,2421.617432 
	C136.446289,2340.933594 101.611885,2257.226562 74.145500,2170.468750 
	C55.477451,2111.501953 40.535519,2051.590576 29.527454,1990.690063 
	C21.851107,1948.221802 15.095751,1905.638916 11.690495,1862.601929 
	C9.361691,1833.169067 7.665616,1803.686401 5.774700,1772.853516 
	C5.773243,1770.840698 5.483764,1770.308960 4.782962,1768.986084 
	C4.509118,1760.292236 4.617959,1752.491089 4.277167,1744.709473 
	C4.177943,1742.444092 2.794649,1740.234985 1.999978,1738.000000 
	C2.000000,1717.291504 2.000000,1696.583130 2.463046,1674.802002 
	C3.548740,1673.431885 3.944562,1672.948608 4.222267,1671.333008 
	C4.245934,1660.282959 4.160893,1650.179077 4.075851,1640.075317 
	C4.075850,1640.075317 4.405837,1640.094482 4.951431,1639.833496 
	C5.911871,1638.986450 6.006376,1638.352783 5.780542,1637.671387 
	C7.184699,1611.536865 8.408806,1585.390869 10.068413,1559.272583 
	C10.907568,1546.066284 12.534276,1532.909912 14.556610,1518.935303 
	C16.000195,1518.157227 16.692072,1518.174927 17.383949,1518.192627 
	C17.696318,1567.495850 17.851555,1616.800781 18.394384,1666.101440 
	C18.628490,1687.363281 18.831106,1708.681885 20.499355,1729.860352 
	C24.772121,1784.102905 31.821423,1837.994263 41.332367,1891.614624 
	C55.346684,1970.623779 75.758957,2047.898193 101.698280,2123.756592 
	C119.466660,2175.719482 140.204849,2226.479248 163.510925,2276.226807 
	C196.042297,2345.666016 233.661743,2412.210205 276.371613,2475.846924 
	C317.940155,2537.783203 363.246582,2596.902100 413.867706,2651.735352 
	C442.308624,2682.542480 471.172760,2713.058838 501.370514,2742.122559 
	C554.612305,2793.364990 611.816895,2839.969971 672.217163,2882.625000 
	C741.943909,2931.866943 815.106262,2975.274902 892.008911,3012.303467 
	C945.962646,3038.281982 1001.272949,3060.990967 1057.920654,3080.503662 
	C1106.051758,3097.082520 1154.833130,3111.375000 1204.279907,3123.341797 
	C1258.917725,3136.565186 1314.196899,3146.556885 1369.930664,3153.857178 
	C1390.511597,3156.552734 1411.048462,3160.064941 1433.412598,3160.710449 
	C1439.317993,3161.482910 1443.723511,3161.655762 1448.128906,3161.828369 
	C1452.092285,3161.922607 1456.055542,3162.016846 1461.484985,3162.718262 
	C1468.677002,3163.492920 1474.402832,3163.660645 1480.128784,3163.828369 
	C1486.727539,3163.922363 1493.326416,3164.016357 1501.463135,3164.728271 
	C1515.388672,3165.453125 1527.776245,3165.560547 1540.163818,3165.667725 
	C1540.163818,3165.667725 1540.223877,3165.941162 1540.697754,3166.578613 
	C1544.450073,3167.477539 1547.727783,3167.953125 1551.006958,3167.965088 
	C1572.582397,3168.044922 1594.158203,3168.024902 1615.733887,3168.037598 
	C1615.929565,3182.533936 1616.208008,3197.029785 1616.297241,3211.526855 
	C1616.384644,3225.714111 1616.279419,3239.902344 1615.179932,3255.042480 
	C1607.153198,3256.000488 1600.198486,3255.838379 1593.260254,3256.104004 
	C1590.819580,3256.197266 1588.418945,3257.337891 1586.000000,3258.000000 
	C1563.958252,3258.000000 1541.916382,3258.000000 1518.386719,3257.360840 
	C1506.555176,3256.552979 1496.211792,3256.384033 1485.868286,3256.215332 
	C1485.868286,3256.215332 1485.960205,3256.118408 1485.406860,3255.446777 
	C1477.800293,3254.586670 1470.747192,3254.398193 1463.693970,3254.209717 
	C1459.075684,3254.160889 1454.457397,3254.112061 1448.382202,3253.401855 
	C1442.466675,3252.617676 1438.007935,3252.494873 1433.549316,3252.371826 
z"/>
<path fill="#5A616E" opacity="1.000000" stroke="none" 
	d="
M1779.548462,60.371571 
	C1773.676270,60.243130 1767.804077,60.114689 1760.425049,59.274544 
	C1749.231323,58.435123 1739.544312,58.307415 1728.931641,58.106834 
	C1700.770142,58.137669 1673.534302,58.241367 1645.348145,58.229176 
	C1636.278442,58.078121 1628.155029,57.877930 1620.042114,58.085983 
	C1616.617798,58.173805 1613.215576,59.121796 1609.803223,59.678810 
	C1600.618774,59.850002 1591.434448,60.021191 1580.443848,60.163555 
	C1573.026367,60.649345 1567.415039,61.163960 1561.803589,61.678574 
	C1557.251343,61.851959 1552.699219,62.025345 1546.462891,62.168976 
	C1541.143799,62.705463 1537.509033,63.271706 1533.874146,63.837944 
	C1518.861572,65.397957 1503.845825,66.927048 1488.837646,68.528557 
	C1478.365967,69.645973 1467.829834,70.409470 1457.454468,72.127617 
	C1434.589233,75.914001 1411.776978,80.042099 1388.997192,84.318535 
	C1312.720459,98.637978 1237.955566,118.683662 1164.709961,144.312683 
	C1113.216919,162.330383 1062.754395,182.909607 1013.389893,206.171524 
	C944.940430,238.426849 879.157959,275.400543 816.265137,317.474609 
	C757.280945,356.933868 701.052856,400.000336 648.593323,447.821198 
	C622.534485,471.575775 596.547974,495.501038 571.886292,520.678894 
	C512.221680,581.592285 457.295715,646.567139 408.105286,716.316528 
	C374.694397,763.691406 343.859070,812.645203 316.187531,863.594055 
	C311.957855,871.381653 307.195618,878.879883 302.264557,887.213562 
	C276.209381,872.008423 251.068787,857.336975 225.045914,842.150696 
	C229.790070,832.967773 233.961533,824.347229 238.607422,815.990417 
	C265.944794,766.817932 294.997833,718.697205 326.973419,672.373535 
	C361.387512,622.517334 398.220856,574.555908 438.106964,528.925049 
	C466.390900,496.567444 495.778961,465.261688 526.744690,435.493256 
	C567.770508,396.053650 610.846008,358.952515 656.086914,324.377808 
	C717.019531,277.810883 781.078552,236.043900 848.227356,199.042343 
	C914.440979,162.556030 982.845581,130.743301 1053.335693,103.372711 
	C1120.136230,77.434700 1188.572388,56.906193 1258.381592,40.955067 
	C1303.452271,30.656599 1348.921875,22.386505 1394.724121,15.977626 
	C1412.016968,13.557945 1429.252075,10.726826 1446.514282,8.087712 
	C1446.842407,8.037541 1447.178955,8.041291 1447.511719,8.022312 
	C1459.046387,7.364354 1470.581177,6.706689 1483.859619,6.026360 
	C1490.499023,5.404606 1495.394531,4.805470 1500.290039,4.206333 
	C1506.882324,4.130064 1513.474487,4.053795 1521.895142,3.943365 
	C1540.473633,3.935532 1557.224609,4.049739 1573.973145,3.898615 
	C1576.654297,3.874423 1579.324707,2.662714 1582.000000,1.999993 
	C1585.428711,2.000000 1588.857422,2.000000 1593.695557,2.639905 
	C1596.393188,3.510533 1597.681519,3.943283 1598.969604,3.942318 
	C1628.679688,3.920053 1658.389893,3.850628 1688.099976,3.789962 
	C1694.009155,3.921402 1699.918457,4.052842 1707.312134,4.832839 
	C1713.240356,5.596943 1717.684082,5.712492 1722.127808,5.828038 
	C1739.748291,7.865760 1757.370605,9.889100 1774.988892,11.945331 
	C1791.745605,13.901022 1808.539917,15.592041 1825.245361,17.919357 
	C1887.574951,26.602793 1948.976440,39.810127 2009.688354,56.302193 
	C2088.454590,77.698647 2165.122070,105.008278 2239.607666,138.362549 
	C2312.311523,170.918991 2382.199951,208.730850 2448.957031,252.216766 
	C2471.257812,266.743439 2493.079590,282.011139 2514.978760,297.144745 
	C2520.060303,300.656433 2524.562988,305.005676 2529.332031,308.969574 
	C2528.974365,309.538971 2528.616943,310.108398 2528.259277,310.677826 
	C2526.691895,310.054352 2525.016357,309.617004 2523.572754,308.780090 
	C2488.470459,288.432037 2453.643311,267.593719 2418.248535,247.769058 
	C2371.491699,221.580551 2323.068848,198.703217 2273.683350,177.908508 
	C2200.629883,147.147858 2125.622070,122.199638 2048.702148,103.049530 
	C2000.940796,91.158829 1952.631470,81.955460 1904.025391,74.327095 
	C1884.802002,71.310165 1865.503784,68.718506 1846.185913,66.376419 
	C1835.700806,65.105209 1825.096436,64.842636 1814.558105,63.975552 
	C1808.333008,63.463375 1802.131958,62.659172 1794.451416,61.283775 
	C1788.504517,60.511368 1784.026489,60.441471 1779.548462,60.371571 
z"/>
<path fill="#5A616E" opacity="1.000000" stroke="none" 
	d="
M3254.326660,1742.152588 
	C3253.499512,1758.403442 3253.335938,1774.721069 3251.709961,1790.891724 
	C3248.093750,1826.859985 3244.450439,1862.851807 3239.516846,1898.654785 
	C3233.443359,1942.734985 3224.590576,1986.350220 3214.121582,2029.613403 
	C3190.913574,2125.520996 3159.439697,2218.589111 3118.853516,2308.584473 
	C3088.293213,2376.348389 3052.786377,2441.367188 3012.689941,2503.939453 
	C2976.925537,2559.751953 2937.855469,2613.126709 2894.575195,2663.313721 
	C2875.044434,2685.961670 2854.251465,2707.532471 2833.746582,2729.324219 
	C2819.600830,2744.357910 2805.231689,2759.201416 2790.504883,2773.664307 
	C2725.117676,2837.880371 2655.420166,2896.859619 2579.408447,2948.305664 
	C2528.917480,2982.478271 2476.563232,3013.416504 2422.569336,3041.616943 
	C2399.583008,3053.622559 2376.195068,3064.859863 2352.949951,3076.366455 
	C2350.178711,3077.738037 2347.158936,3078.607666 2344.254395,3079.709961 
	C2343.881348,3079.084961 2343.508301,3078.459717 2343.135254,3077.834473 
	C2344.890381,3076.311768 2346.468750,3074.496582 2348.428711,3073.312500 
	C2364.087891,3063.853027 2379.743408,3054.383545 2395.540283,3045.157471 
	C2486.017822,2992.314209 2571.221191,2932.093262 2649.505127,2862.376709 
	C2677.563477,2837.389404 2705.224121,2811.848389 2731.646729,2785.154541 
	C2784.576172,2731.682861 2833.079590,2674.334961 2877.364014,2613.448730 
	C2919.114258,2556.047119 2957.014404,2496.224365 2990.583740,2433.696289 
	C3022.404053,2374.426025 3049.760742,2313.109619 3073.347656,2250.113281 
	C3100.891846,2176.548828 3122.764404,2101.287842 3139.351807,2024.549316 
	C3149.164062,1979.153442 3157.336426,1933.404663 3162.273926,1887.168701 
	C3165.196533,1859.800171 3167.802734,1832.395630 3170.274658,1804.982300 
	C3171.317383,1793.417114 3171.648926,1781.787720 3172.656738,1768.970947 
	C3173.477295,1767.191284 3173.546875,1766.582886 3173.218506,1765.929077 
	C3173.390869,1730.644409 3173.803467,1695.358398 3173.631592,1660.075439 
	C3173.549072,1643.138916 3172.869141,1626.168213 3171.553955,1609.283447 
	C3169.597656,1584.166260 3167.197266,1559.070557 3164.322266,1534.041748 
	C3161.332031,1508.009277 3158.097412,1481.981567 3154.012695,1456.102661 
	C3143.749268,1391.079102 3129.116699,1327.014160 3110.502197,1263.858398 
	C3094.607178,1209.928711 3075.750488,1157.064453 3054.064697,1105.197266 
	C3024.634521,1034.808105 2990.254639,966.923157 2951.229980,901.374512 
	C2945.305420,891.422913 2939.662109,881.304016 2933.412842,870.434937 
	C2936.633545,868.194946 2939.147949,866.149048 2941.925049,864.563293 
	C2959.830566,854.338562 2977.790283,844.208923 2995.742676,834.067017 
	C2997.189453,833.249756 2998.702637,832.544250 3000.208740,831.838074 
	C3009.804443,827.338806 3012.395508,827.715515 3017.991211,837.095764 
	C3036.051025,867.370544 3054.600342,897.397644 3071.423828,928.355774 
	C3100.342041,981.570374 3125.655029,1036.537964 3148.037842,1092.853271 
	C3179.894043,1173.004761 3204.675293,1255.325562 3223.300049,1339.467529 
	C3233.198975,1384.188354 3241.889893,1429.197266 3246.333740,1474.877808 
	C3248.484375,1496.984375 3250.520996,1519.105469 3252.261475,1541.247314 
	C3253.223389,1553.486816 3253.467041,1565.782715 3253.999512,1579.906738 
	C3253.979492,1586.730835 3253.747803,1591.718384 3254.089355,1596.666260 
	C3254.352295,1600.469971 3255.336670,1604.223877 3256.000000,1608.000000 
	C3256.000000,1644.041748 3256.000000,1680.083618 3255.282227,1717.512939 
	C3254.485352,1726.651245 3254.406006,1734.401978 3254.326660,1742.152588 
z"/>
<path fill="#C8CACE" opacity="1.000000" stroke="none" 
	d="
M1688.044434,3.344174 
	C1658.389893,3.850628 1628.679688,3.920053 1598.969604,3.942318 
	C1597.681519,3.943283 1596.393188,3.510533 1594.552490,2.639905 
	C1624.708496,2.000000 1655.416870,2.000000 1687.062744,2.000000 
	C1688.000000,2.000000 1687.989014,2.898386 1688.044434,3.344174 
z"/>
<path fill="#C8CACE" opacity="1.000000" stroke="none" 
	d="
M1581.062744,1.999993 
	C1579.324707,2.662714 1576.654297,3.874423 1573.973145,3.898615 
	C1557.224609,4.049739 1540.473633,3.935532 1522.782715,3.782813 
	C1521.842041,3.656420 1521.899536,2.826163 1521.949707,2.413082 
	C1541.375122,2.000000 1560.750244,2.000000 1581.062744,1.999993 
z"/>
<path fill="#C8CACE" opacity="1.000000" stroke="none" 
	d="
M1.999978,1738.935181 
	C2.794649,1740.234985 4.177943,1742.444092 4.277167,1744.709473 
	C4.617959,1752.491089 4.509118,1760.292236 4.574722,1769.399414 
	C4.577809,1770.713013 4.365299,1771.611816 4.365299,1771.611816 
	C3.971170,1771.677124 3.577041,1771.742310 2.591456,1771.903809 
	C2.000000,1761.290161 2.000000,1750.580200 1.999978,1738.935181 
z"/>
<path fill="#C8CACE" opacity="1.000000" stroke="none" 
	d="
M1485.887939,3256.662354 
	C1496.211792,3256.384033 1506.555176,3256.552979 1517.449341,3257.360840 
	C1507.955811,3258.000000 1497.911621,3258.000000 1486.933716,3258.000000 
	C1486.000000,3258.000000 1485.907471,3257.109619 1485.887939,3256.662354 
z"/>
<path fill="#C8CACE" opacity="1.000000" stroke="none" 
	d="
M3.558675,1640.007202 
	C4.160893,1650.179077 4.245934,1660.282959 3.692074,1671.275024 
	C2.702114,1672.108887 2.351057,1672.054443 2.000000,1672.000000 
	C2.000000,1661.955811 2.000000,1651.911621 2.000000,1640.933716 
	C2.347166,1639.979614 2.694333,1639.959351 3.558675,1640.007202 
z"/>
<path fill="#C8CACE" opacity="1.000000" stroke="none" 
	d="
M1586.932251,3258.000000 
	C1588.418945,3257.337891 1590.819580,3256.197266 1593.260254,3256.104004 
	C1600.198486,3255.838379 1607.153198,3256.000488 1615.028076,3255.965332 
	C1615.983032,3256.279785 1616.011108,3256.623291 1616.019531,3257.483398 
	C1606.621460,3258.000000 1597.243042,3258.000000 1586.932251,3258.000000 
z"/>
<path fill="#C8CACE" opacity="1.000000" stroke="none" 
	d="
M3256.000000,1607.070679 
	C3255.336670,1604.223877 3254.352295,1600.469971 3254.089355,1596.666260 
	C3253.747803,1591.718384 3253.979492,1586.730835 3254.077393,1580.833862 
	C3254.190430,1579.907349 3255.092773,1580.002319 3255.546387,1580.001221 
	C3256.000000,1588.713745 3256.000000,1597.427612 3256.000000,1607.070679 
z"/>
<path fill="#C8CACE" opacity="1.000000" stroke="none" 
	d="
M3254.750244,1742.172607 
	C3254.406006,1734.401978 3254.485352,1726.651245 3255.282227,1718.450317 
	C3256.000000,1725.385864 3256.000000,1732.771606 3256.000000,1741.078735 
	C3256.000000,1742.000000 3255.173828,1742.192749 3254.750244,1742.172607 
z"/>
<path fill="#828892" opacity="1.000000" stroke="none" 
	d="
M2.000000,1672.500000 
	C2.351057,1672.054443 2.702114,1672.108887 3.583364,1672.221436 
	C3.944562,1672.948608 3.548740,1673.431885 2.463046,1673.864746 
	C2.000000,1674.000000 2.000000,1673.000000 2.000000,1672.500000 
z"/>
<path fill="#9D7CB7" opacity="1.000000" stroke="none" 
	d="
M2306.102051,500.154968 
	C2302.997559,533.165955 2298.074219,564.933167 2290.996338,596.418701 
	C2278.891602,650.267944 2260.481201,701.803040 2235.246582,750.840759 
	C2213.700684,792.710144 2188.076904,832.000488 2157.247803,867.644409 
	C2138.758057,889.022278 2119.855957,910.130127 2099.947266,930.175842 
	C2061.665283,968.721436 2019.870361,1003.302917 1976.258179,1035.662109 
	C1923.549438,1074.770996 1868.462158,1110.375122 1813.262573,1145.803955 
	C1752.449707,1184.835571 1691.609009,1223.819336 1632.873535,1265.973389 
	C1586.011475,1299.605957 1540.884033,1335.267456 1501.117676,1377.289185 
	C1469.171387,1411.047119 1441.659912,1447.966553 1419.140381,1488.754028 
	C1405.503662,1513.452881 1397.341187,1540.103149 1387.996338,1566.390991 
	C1385.101074,1574.535889 1382.441040,1582.766235 1379.430542,1590.867310 
	C1378.303345,1593.900757 1376.485474,1596.677490 1374.796387,1599.929443 
	C1356.687378,1592.269287 1342.252319,1580.927368 1331.212402,1565.401245 
	C1301.552734,1523.690186 1287.290405,1477.310059 1292.503052,1426.224243 
	C1297.675049,1375.538086 1317.402588,1330.932373 1351.632812,1292.516968 
	C1403.538940,1234.264404 1464.334106,1187.127686 1531.022827,1147.447021 
	C1577.922363,1119.541016 1625.529053,1092.790405 1673.287842,1066.369751 
	C1729.487671,1035.279541 1786.267212,1005.239258 1842.657715,974.491638 
	C1895.625854,945.610046 1947.185181,914.344360 1994.682129,877.057068 
	C2021.866699,855.716125 2047.823486,832.716003 2073.342529,809.379944 
	C2092.215332,792.121704 2110.404785,773.916138 2127.236816,754.678711 
	C2146.699951,732.434082 2165.103027,709.153442 2182.581299,685.307739 
	C2204.449707,655.472961 2223.754883,623.819153 2239.624756,590.393127 
	C2257.158691,553.461548 2274.908203,516.546997 2287.348633,477.412140 
	C2291.272461,465.069672 2295.821045,452.917206 2300.397217,440.796143 
	C2301.752441,437.207245 2304.178955,434.022888 2306.407715,430.142548 
	C2311.019287,433.724670 2310.385498,437.938019 2310.155762,441.616913 
	C2309.059326,459.169189 2307.665283,476.702759 2306.391846,494.244049 
	C2306.270996,495.905426 2306.249023,497.573944 2306.102051,500.154968 
z"/>
<path fill="#9D7CB8" opacity="1.000000" stroke="none" 
	d="
M1751.880371,190.284897 
	C1719.925293,190.258652 1687.970215,190.232391 1654.177979,190.200714 
	C1644.860596,190.718842 1637.380371,191.242386 1629.900269,191.765930 
	C1584.750488,193.693710 1539.777344,197.923309 1495.079712,204.308243 
	C1400.359619,217.838821 1307.848145,240.595047 1217.728027,272.904877 
	C1171.337036,289.536926 1126.015137,308.650330 1081.471069,329.751099 
	C1023.319885,357.297607 967.539978,388.991455 913.239563,423.421417 
	C860.876465,456.622986 811.235291,493.474731 763.760315,533.326294 
	C749.399780,545.380920 748.974365,545.123291 736.840149,531.164368 
	C725.935791,518.620178 715.327026,505.818939 704.617981,493.105743 
	C703.583069,491.877258 702.761047,490.469421 701.104736,488.086884 
	C722.777161,470.069611 743.783752,451.684967 765.746155,434.523468 
	C826.941956,386.704712 891.105591,343.187775 958.782349,305.036987 
	C1015.688293,272.957947 1074.849854,245.554062 1135.727783,221.849289 
	C1185.072144,202.635513 1235.044556,185.164017 1286.364868,172.144913 
	C1329.871460,161.108032 1373.719238,151.262970 1417.711426,142.347870 
	C1446.666016,136.480209 1476.041504,132.253769 1505.419434,129.038635 
	C1532.152466,126.112968 1559.143433,125.543854 1587.885498,123.921913 
	C1629.212524,123.836037 1668.674561,123.764214 1708.136719,123.692390 
	C1720.083252,123.824333 1732.029663,123.956284 1745.532349,124.683357 
	C1754.781860,125.344254 1762.475098,125.410019 1770.168457,125.475784 
	C1782.767334,126.314316 1795.432129,126.603767 1807.951782,128.103500 
	C1835.658569,131.422562 1863.384399,134.772583 1890.937500,139.148422 
	C1949.786621,148.494476 2007.858032,161.501617 2065.118408,178.052383 
	C2127.534180,196.093307 2188.510986,218.096848 2248.015625,244.201782 
	C2313.671875,273.005493 2376.864990,306.440308 2437.452881,344.765533 
	C2480.807861,372.189972 2522.442871,402.053772 2562.592285,433.982269 
	C2613.467773,474.440521 2661.090088,518.489563 2706.123291,565.308289 
	C2754.610596,615.717957 2799.439697,669.224243 2839.957031,726.283875 
	C2846.315674,735.238892 2852.550537,744.285645 2858.645020,753.421936 
	C2860.362061,755.995911 2861.375488,759.039062 2862.711670,761.866943 
	C2862.060547,762.275391 2861.409424,762.683777 2860.758301,763.092163 
	C2856.342285,757.999268 2851.899170,752.929382 2847.514404,747.809753 
	C2823.949707,720.295654 2801.235107,691.994324 2776.625000,665.450073 
	C2748.115723,634.700378 2718.850098,604.525879 2688.282471,575.838989 
	C2641.692627,532.116028 2591.900635,492.154755 2539.591797,455.331757 
	C2494.625977,423.677948 2448.072266,394.618713 2399.975342,368.053772 
	C2356.547363,344.067688 2311.757080,322.839661 2266.116699,303.349457 
	C2221.395264,284.251740 2175.696533,267.945618 2129.333008,253.375488 
	C2081.086182,238.213547 2032.079956,225.914383 1982.430786,216.623352 
	C1945.256714,209.666840 1907.694946,204.629944 1870.177734,199.715317 
	C1847.168579,196.701157 1823.919922,195.508148 1800.774780,193.543869 
	C1793.173218,192.898727 1785.559326,192.399811 1776.386963,191.228073 
	C1767.175293,190.509705 1759.527832,190.397308 1751.880371,190.284897 
z"/>
<path fill="#9D7CB8" opacity="1.000000" stroke="none" 
	d="
M3108.247070,1698.000000 
	C3108.087402,1726.992310 3108.567383,1755.007568 3107.569336,1782.969971 
	C3106.742188,1806.157715 3104.398682,1829.303467 3102.304443,1852.429688 
	C3100.599609,1871.254395 3098.774658,1890.094727 3096.095947,1908.798096 
	C3092.237061,1935.739990 3088.046387,1962.654297 3083.126709,1989.420166 
	C3071.697021,2051.604736 3055.004150,2112.482910 3035.197021,2172.460693 
	C3020.489258,2216.996582 3003.404541,2260.663818 2984.354492,2303.576416 
	C2962.307129,2353.240967 2937.396240,2401.404785 2909.570801,2448.018066 
	C2881.391602,2495.224121 2850.690674,2540.832520 2816.662109,2584.021240 
	C2791.354736,2616.140381 2765.397217,2647.824463 2738.276367,2678.414062 
	C2713.564941,2706.286133 2687.642578,2733.191895 2660.908203,2759.136963 
	C2624.865967,2794.115234 2586.602051,2826.671875 2546.796875,2857.369873 
	C2501.136230,2892.583740 2453.512207,2924.902588 2403.945801,2954.340332 
	C2344.050537,2989.912354 2281.956787,3021.121826 2217.552979,3047.721191 
	C2166.460449,3068.822510 2114.204102,3086.541992 2061.064453,3101.672363 
	C2014.680542,3114.879639 1967.748779,3125.875488 1920.191895,3133.850098 
	C1885.171875,3139.722412 1849.979248,3144.635498 1814.774780,3149.305420 
	C1800.354004,3151.218506 1785.699097,3151.365967 1770.687378,3150.595947 
	C1772.167114,3149.868164 1773.580200,3148.720215 1775.136353,3148.473389 
	C1831.332642,3139.559570 1887.079712,3128.457031 1942.147095,3114.089355 
	C2015.351807,3094.989258 2087.060303,3071.350342 2156.341064,3040.890381 
	C2190.757080,3025.759521 2224.892822,3009.811035 2258.248779,2992.487061 
	C2326.330566,2957.127930 2390.744629,2915.810059 2451.936279,2869.477051 
	C2484.849609,2844.556152 2516.971436,2818.678955 2547.142090,2790.505371 
	C2574.386963,2765.063721 2601.930420,2739.841309 2627.729736,2712.973633 
	C2681.484375,2656.992920 2730.824707,2597.286621 2774.915771,2533.282959 
	C2807.445801,2486.061523 2837.188232,2437.222656 2864.146484,2386.620605 
	C2898.487061,2322.160889 2927.368164,2255.358398 2951.791748,2186.564697 
	C2978.219482,2112.125732 2996.922607,2035.655151 3011.449707,1958.148438 
	C3017.560791,1925.544922 3022.278809,1892.653320 3024.265625,1859.455688 
	C3025.495605,1838.903687 3026.818115,1818.356323 3028.262451,1797.818359 
	C3031.819092,1747.247681 3029.971680,1696.628052 3029.781982,1646.022827 
	C3029.775635,1644.356323 3029.798584,1642.688721 3029.748291,1641.023438 
	C3029.084473,1619.090820 3029.593262,1597.042725 3027.463379,1575.252930 
	C3024.205566,1541.928833 3019.243896,1508.767212 3014.766846,1475.568604 
	C3012.688477,1460.158203 3010.047852,1444.823486 3007.506592,1428.453735 
	C3030.549316,1422.404297 3053.476562,1419.121704 3076.489746,1413.940186 
	C3077.515869,1415.790649 3078.907227,1417.341431 3079.272949,1419.104858 
	C3083.656006,1440.242065 3088.537598,1461.305664 3091.984619,1482.599487 
	C3095.852051,1506.490112 3098.556885,1530.576172 3101.424072,1554.618042 
	C3102.720703,1565.492310 3103.228271,1576.462402 3104.022461,1587.394409 
	C3106.672852,1623.881226 3108.808350,1660.388916 3108.247070,1698.000000 
z"/>
<path fill="#9D7CB8" opacity="1.000000" stroke="none" 
	d="
M130.547165,1534.039673 
	C130.448975,1561.368042 129.795685,1588.708984 130.417465,1616.020874 
	C130.976532,1640.578247 132.215775,1665.168701 134.417694,1689.630737 
	C139.984192,1751.471313 148.380676,1812.893311 161.385559,1873.707520 
	C178.331528,1952.951416 202.067291,2030.045654 231.250671,2105.568359 
	C252.159195,2159.676758 276.394562,2212.253174 303.776611,2263.346191 
	C345.391388,2340.996826 393.816132,2414.155029 449.005768,2482.899658 
	C490.344543,2534.391846 535.168579,2582.625732 582.716614,2628.320801 
	C630.280579,2674.031006 680.903259,2716.138672 734.482056,2754.714844 
	C784.006958,2790.372559 835.552246,2822.699707 889.112732,2851.930664 
	C948.257812,2884.209473 1009.654114,2911.489014 1072.348633,2935.988281 
	C1080.708984,2939.255127 1088.970825,2942.774170 1096.937012,2946.036621 
	C1098.786621,2957.484131 1082.967285,2999.385498 1071.003418,3014.548584 
	C1059.538086,3010.695801 1047.558716,3006.883301 1035.727905,3002.655273 
	C995.580750,2988.308350 956.566223,2971.239746 918.102661,2952.920898 
	C844.910095,2918.061279 774.819336,2877.819092 708.434265,2831.220215 
	C666.467407,2801.762451 625.603149,2770.835693 587.535767,2736.457031 
	C558.646790,2710.367188 529.940918,2684.000000 502.418152,2656.490967 
	C465.697723,2619.788818 431.850677,2580.432861 399.773926,2539.563965 
	C358.810669,2487.372559 321.680603,2432.590332 288.280609,2375.296875 
	C259.591309,2326.084473 233.896896,2275.354248 211.248123,2223.039795 
	C190.741669,2175.673584 172.783218,2127.412842 157.267273,2078.211670 
	C139.354736,2021.411011 124.767853,1963.750244 114.345604,1905.132690 
	C108.483688,1872.163574 104.302505,1838.886841 99.767616,1805.693359 
	C95.672440,1775.718384 94.119225,1745.547485 93.687256,1715.295898 
	C93.340683,1691.023193 91.842239,1666.756958 91.915527,1642.491089 
	C91.996895,1615.554565 92.964020,1588.608032 94.110886,1561.690063 
	C96.261490,1511.213013 102.078987,1461.067017 110.422592,1411.289551 
	C125.347900,1322.246216 148.486053,1235.342896 179.461380,1150.462524 
	C195.681473,1106.015259 214.220978,1062.623779 234.125671,1019.760437 
	C236.227341,1015.234680 238.083847,1010.587097 240.366867,1006.157288 
	C241.320221,1004.307434 243.091751,1002.879150 244.491257,1001.259216 
	C245.103409,1001.572998 245.715561,1001.886780 246.327713,1002.200562 
	C242.869354,1012.078857 239.595703,1022.026367 235.921494,1031.823608 
	C217.464600,1081.038940 199.423279,1130.389038 185.165527,1181.034790 
	C170.923431,1231.625122 159.061310,1282.787109 150.598557,1334.630859 
	C145.201416,1367.694458 141.819641,1401.092163 137.761414,1434.367676 
	C133.898239,1466.043701 131.685074,1497.840698 131.346252,1530.981689 
	C130.419052,1532.724365 130.288254,1533.340698 130.547165,1534.039673 
z"/>
<path fill="#5A616E" opacity="1.000000" stroke="none" 
	d="
M1254.333984,2073.141357 
	C1251.327515,2039.074585 1258.217407,2008.477539 1279.627808,1982.459595 
	C1288.888184,1971.206421 1299.860718,1961.299561 1310.507812,1951.260864 
	C1354.766235,1909.531372 1405.686035,1876.588867 1455.313721,1841.947266 
	C1491.319336,1816.813843 1528.296997,1792.894897 1560.930664,1763.340210 
	C1582.111084,1744.158325 1603.187622,1724.606323 1622.158813,1703.303711 
	C1647.076538,1675.323975 1660.375122,1641.241089 1666.048584,1604.308350 
	C1667.958618,1591.874756 1669.028198,1579.312134 1670.662231,1565.256348 
	C1674.684570,1567.546387 1678.145264,1569.211670 1681.282959,1571.350830 
	C1708.819214,1590.122192 1734.814697,1610.793457 1758.851929,1633.929810 
	C1776.835327,1651.239258 1795.420776,1667.931030 1813.184814,1685.458740 
	C1831.044556,1703.080444 1845.562256,1723.192139 1856.941284,1745.742432 
	C1873.499756,1778.557129 1869.618286,1809.169556 1849.377441,1838.794678 
	C1836.906250,1857.047852 1818.799805,1867.977783 1799.850708,1878.037109 
	C1752.016846,1903.429688 1701.268311,1921.370728 1649.854248,1937.832886 
	C1586.884888,1957.994995 1523.062744,1975.615845 1461.447632,1999.862183 
	C1427.970947,2013.035767 1395.201416,2027.729980 1366.402344,2049.827393 
	C1349.857422,2062.522217 1335.508301,2077.225098 1326.796021,2096.554688 
	C1318.959595,2113.940918 1316.720215,2132.147217 1319.195312,2151.062988 
	C1320.054932,2157.632812 1320.003784,2164.325684 1320.290771,2170.965576 
	C1320.460083,2174.882812 1319.457397,2178.232666 1314.383911,2180.184570 
	C1299.270142,2166.092285 1287.350220,2149.016357 1276.108154,2131.418213 
	C1264.873047,2113.830322 1257.055908,2094.905762 1254.333984,2073.141357 
z"/>
<path fill="#828388" opacity="1.000000" stroke="none" 
	d="
M1800.861206,1200.887207 
	C1849.845337,1167.997070 1898.245483,1135.537109 1946.624512,1103.046143 
	C1980.957764,1079.988281 2013.413818,1054.606934 2042.673462,1025.277954 
	C2055.594971,1012.325806 2068.457520,999.312683 2081.532715,986.517273 
	C2085.456787,982.677124 2090.008301,979.478210 2094.272461,975.985657 
	C2094.979492,976.461365 2095.686279,976.937134 2096.393066,977.412842 
	C2094.701416,984.066162 2093.279053,990.801941 2091.272705,997.359009 
	C2081.563721,1029.086792 2066.326416,1058.282959 2049.294678,1086.531372 
	C2028.626831,1120.810181 2004.308105,1152.340576 1977.377197,1182.031250 
	C1949.087280,1213.219971 1917.299561,1240.459351 1884.830566,1266.948608 
	C1829.155518,1312.369995 1772.608521,1356.729858 1717.241211,1402.519287 
	C1665.224609,1445.537842 1618.776733,1493.998657 1581.070435,1550.327271 
	C1547.817749,1600.002808 1523.387207,1653.590088 1509.994141,1712.018066 
	C1508.658813,1717.843140 1507.509521,1723.772339 1505.460571,1729.354614 
	C1503.569580,1734.506714 1500.584717,1739.257202 1497.776001,1744.786377 
	C1495.030518,1742.919556 1493.064941,1742.153198 1491.928955,1740.726196 
	C1470.437012,1713.729736 1451.828735,1685.075562 1442.266602,1651.468262 
	C1425.516724,1592.598389 1433.014038,1537.009399 1465.055786,1484.748169 
	C1482.017578,1457.082886 1502.707642,1432.375000 1525.019165,1408.994995 
	C1569.823608,1362.045166 1621.194824,1322.894531 1674.136841,1285.862915 
	C1715.606567,1256.856079 1758.183350,1229.431885 1800.861206,1200.887207 
z"/>
<path fill="#828388" opacity="1.000000" stroke="none" 
	d="
M2016.031738,2161.972900 
	C2036.986694,2181.509277 2057.310547,2200.688232 2077.925293,2219.549316 
	C2114.513672,2253.024658 2151.362549,2286.262695 2184.800049,2322.941406 
	C2215.976807,2357.140137 2245.649902,2392.618896 2268.297363,2433.317139 
	C2289.354980,2471.158203 2302.782227,2511.642822 2310.320557,2554.235107 
	C2318.010254,2597.683105 2319.740479,2641.476074 2317.541504,2685.374268 
	C2315.731934,2721.494385 2311.631592,2757.455811 2305.080322,2793.074463 
	C2302.198242,2808.744629 2299.106934,2824.377197 2295.969971,2839.998779 
	C2295.269531,2843.486816 2293.979004,2846.856201 2292.644531,2851.342773 
	C2286.262695,2846.765869 2284.083740,2841.247314 2283.803955,2834.853027 
	C2281.204102,2775.465332 2264.379883,2719.864014 2239.565674,2666.271973 
	C2223.310303,2631.164551 2204.432861,2597.530762 2183.026611,2565.390625 
	C2140.971436,2502.246094 2098.032227,2439.689453 2056.078613,2376.478271 
	C2022.485229,2325.863770 1994.196411,2272.452393 1975.157349,2214.495361 
	C1965.697510,2185.698730 1958.835571,2156.326660 1955.717651,2126.138672 
	C1954.983643,2119.031982 1954.509521,2111.898438 1953.915894,2104.777100 
	C1954.659424,2104.349854 1955.402832,2103.922607 1956.146240,2103.495361 
	C1959.124023,2105.731445 1962.426147,2107.644531 1965.027100,2110.255859 
	C1981.947021,2127.243408 1998.714355,2144.382568 2016.031738,2161.972900 
z"/>
<path fill="#828388" opacity="1.000000" stroke="none" 
	d="
M1783.422363,2566.050293 
	C1783.510376,2581.397217 1783.598389,2596.744385 1783.365234,2613.247314 
	C1783.293213,2614.947754 1783.542358,2615.492188 1783.791626,2616.036621 
	C1781.854004,2617.971924 1779.768311,2621.577637 1778.016235,2621.422363 
	C1775.805420,2621.226318 1773.181763,2618.322998 1771.934326,2615.956299 
	C1767.592773,2607.719971 1763.574829,2599.297607 1759.779663,2590.791748 
	C1735.780029,2537.003174 1701.835693,2490.154541 1661.402832,2447.579834 
	C1615.141724,2398.867920 1562.410278,2357.922363 1508.713135,2318.037354 
	C1471.064697,2290.072998 1432.245605,2263.612305 1397.339844,2232.100830 
	C1385.757080,2221.644531 1373.633179,2211.773193 1365.088135,2198.274170 
	C1350.178345,2174.720947 1347.869629,2150.846680 1360.571045,2125.515137 
	C1376.052612,2094.638672 1400.028076,2071.727051 1426.712646,2051.624512 
	C1433.212158,2053.363525 1434.324707,2057.634766 1434.274902,2062.654785 
	C1434.198853,2070.315918 1434.252686,2077.979492 1434.062500,2085.637451 
	C1433.385986,2112.867920 1446.737915,2133.541748 1471.976929,2144.439941 
	C1511.666992,2161.578613 1551.802979,2177.777832 1590.884033,2196.211426 
	C1650.428467,2224.296875 1698.860840,2264.972168 1729.934082,2324.484131 
	C1750.775024,2364.398926 1764.429443,2406.575195 1771.625610,2450.811279 
	C1775.457520,2474.366699 1777.779907,2498.186523 1780.185791,2521.947754 
	C1781.521973,2535.144287 1781.628540,2548.465088 1782.292358,2563.125488 
	C1782.463745,2565.183350 1782.839355,2565.693359 1783.422363,2566.050293 
z"/>
<path fill="#5A616E" opacity="1.000000" stroke="none" 
	d="
M1354.127563,921.830627 
	C1396.713745,926.873352 1426.056763,948.799377 1440.778076,989.555481 
	C1447.174438,1007.264404 1450.494263,1025.566040 1449.466675,1044.260132 
	C1448.499390,1061.852783 1444.770142,1079.108643 1437.817749,1095.468994 
	C1427.458008,1119.846924 1414.448242,1142.519653 1395.154419,1161.098145 
	C1371.494873,1183.880615 1343.615723,1198.353271 1311.112061,1203.632202 
	C1304.892456,1204.642334 1298.568237,1206.242676 1292.369995,1205.946411 
	C1254.053833,1204.115479 1224.146484,1187.222900 1205.372192,1153.516113 
	C1185.625610,1118.064087 1184.833252,1080.196533 1196.803223,1042.329468 
	C1208.831055,1004.279175 1230.376099,972.244263 1263.364868,948.852295 
	C1283.458130,934.604431 1305.613281,925.138550 1331.987305,922.029541 
	C1340.524658,921.947754 1347.326172,921.889160 1354.127563,921.830627 
z"/>
<path fill="#9D7CB7" opacity="1.000000" stroke="none" 
	d="
M1686.332275,1970.282471 
	C1720.804932,1956.774658 1754.596436,1943.623047 1788.271240,1930.179199 
	C1807.839478,1922.367065 1825.671631,1911.280029 1843.305420,1899.887207 
	C1851.125732,1894.834595 1858.980957,1889.835693 1868.037720,1884.032593 
	C1869.318481,1887.855591 1870.833374,1891.034912 1871.434326,1894.378662 
	C1877.718018,1929.337402 1883.689819,1964.352905 1890.069214,1999.293945 
	C1902.187622,2065.668945 1915.482788,2131.763672 1937.625732,2195.726318 
	C1950.273560,2232.260986 1964.982422,2267.896729 1983.056274,2302.098877 
	C1986.130371,2307.915771 1987.689209,2313.692871 1984.204956,2321.416992 
	C1980.913330,2319.355469 1977.766357,2317.824463 1975.130981,2315.667725 
	C1937.548340,2284.912598 1899.758423,2254.401123 1862.621948,2223.114502 
	C1844.067139,2207.482666 1826.678223,2190.461182 1808.863647,2173.958252 
	C1757.582275,2126.452637 1713.423584,2072.996826 1675.697021,2014.188599 
	C1673.001831,2009.987427 1670.018066,2005.897461 1667.929321,2001.402466 
	C1666.008057,1997.268188 1664.789062,1992.724854 1663.847656,1988.238525 
	C1662.632202,1982.447632 1665.461792,1978.829834 1670.913208,1976.777100 
	C1675.889771,1974.902832 1680.712036,1972.619141 1686.332275,1970.282471 
z"/>
<path fill="#E6BDDB" opacity="1.000000" stroke="none" 
	d="
M1707.493164,123.156853 
	C1668.674561,123.764214 1629.212524,123.836037 1588.806763,123.800217 
	C1590.364136,123.128769 1592.863647,122.081177 1595.366211,122.073967 
	C1631.225098,121.970528 1667.084351,122.000977 1702.943604,122.036232 
	C1704.245728,122.037514 1705.547485,122.417709 1707.493164,123.156853 
z"/>
<path fill="#D5FFFF" opacity="1.000000" stroke="none" 
	d="
M1646.298584,58.345066 
	C1673.534302,58.241367 1700.770142,58.137669 1729.070801,58.495094 
	C1730.135620,58.956219 1730.382690,59.743584 1730.382690,59.743584 
	C1702.852051,59.822784 1675.321533,59.901978 1646.951904,59.556282 
	C1646.112915,59.131390 1646.298584,58.345066 1646.298584,58.345066 
z"/>
<path fill="#82616D" opacity="1.000000" stroke="none" 
	d="
M1615.350342,3167.279785 
	C1594.158203,3168.024902 1572.582397,3168.044922 1551.006958,3167.965088 
	C1547.727783,3167.953125 1544.450073,3167.477539 1540.569458,3166.634766 
	C1564.967041,3166.209473 1589.967041,3166.365723 1615.350342,3167.279785 
z"/>
<path fill="#D4AFB6" opacity="1.000000" stroke="none" 
	d="
M1539.533325,3165.107178 
	C1527.776245,3165.560547 1515.388672,3165.453125 1502.357666,3164.776611 
	C1514.110474,3164.320557 1526.506714,3164.433594 1539.533325,3165.107178 
z"/>
<path fill="#82AFB6" opacity="1.000000" stroke="none" 
	d="
M1645.348145,58.229176 
	C1646.298584,58.345066 1646.112915,59.131390 1646.009277,59.521416 
	C1634.502075,59.913074 1623.098633,59.914711 1610.749268,59.797577 
	C1613.215576,59.121796 1616.617798,58.173805 1620.042114,58.085983 
	C1628.155029,57.877930 1636.278442,58.078121 1645.348145,58.229176 
z"/>
<path fill="#82AFB6" opacity="1.000000" stroke="none" 
	d="
M1731.281982,59.821587 
	C1730.382690,59.743584 1730.135620,58.956219 1729.996460,58.567963 
	C1739.544312,58.307415 1749.231323,58.435123 1759.552979,59.119438 
	C1750.852173,59.750557 1741.516724,59.825073 1731.281982,59.821587 
z"/>
<path fill="#C8CACE" opacity="1.000000" stroke="none" 
	d="
M1752.508301,190.824921 
	C1759.527832,190.397308 1767.175293,190.509705 1775.490967,191.095917 
	C1768.484863,191.501465 1760.810425,191.433212 1752.508301,190.824921 
z"/>
<path fill="#E6BDDB" opacity="1.000000" stroke="none" 
	d="
M1769.493530,125.007462 
	C1762.475098,125.410019 1754.781860,125.344254 1746.456543,124.731651 
	C1753.489258,124.302925 1761.153931,124.421036 1769.493530,125.007462 
z"/>
<path fill="#C8CACE" opacity="1.000000" stroke="none" 
	d="
M1630.816406,191.865784 
	C1637.380371,191.242386 1644.860596,190.718842 1653.260132,190.327484 
	C1646.697266,190.961670 1639.214966,191.463669 1630.816406,191.865784 
z"/>
<path fill="#D4AFB6" opacity="1.000000" stroke="none" 
	d="
M1353.518311,921.280640 
	C1347.326172,921.889160 1340.524658,921.947754 1332.797852,921.918457 
	C1338.725220,918.412231 1345.844971,920.101746 1353.518311,921.280640 
z"/>
<path fill="#82AFB6" opacity="1.000000" stroke="none" 
	d="
M1562.692017,61.795483 
	C1567.415039,61.163960 1573.026367,60.649345 1579.545044,60.252815 
	C1574.828369,60.884731 1569.204346,61.398563 1562.692017,61.795483 
z"/>
<path fill="#D4AFB6" opacity="1.000000" stroke="none" 
	d="
M1479.519531,3163.278320 
	C1474.402832,3163.660645 1468.677002,3163.492920 1462.332764,3162.766602 
	C1467.446411,3162.380859 1473.178467,3162.554443 1479.519531,3163.278320 
z"/>
<path fill="#D4AFB6" opacity="1.000000" stroke="none" 
	d="
M1499.414551,4.110385 
	C1495.394531,4.805470 1490.499023,5.404606 1484.737793,5.915915 
	C1488.761108,5.223537 1493.650146,4.618987 1499.414551,4.110385 
z"/>
<path fill="#82AFB6" opacity="1.000000" stroke="none" 
	d="
M1780.161743,60.927288 
	C1784.026489,60.441471 1788.504517,60.511368 1793.585205,61.128624 
	C1789.717041,61.611660 1785.245972,61.547333 1780.161743,60.927288 
z"/>
<path fill="#D4AFB6" opacity="1.000000" stroke="none" 
	d="
M1447.537109,3161.284180 
	C1443.723511,3161.655762 1439.317993,3161.482910 1434.313477,3160.758789 
	C1438.124634,3160.385010 1442.534912,3160.562500 1447.537109,3161.284180 
z"/>
<path fill="#D4AFB6" opacity="1.000000" stroke="none" 
	d="
M1721.530762,5.281659 
	C1717.684082,5.712492 1713.240356,5.596943 1708.186523,4.928027 
	C1712.028931,4.494865 1716.481201,4.615071 1721.530762,5.281659 
z"/>
<path fill="#82AFB6" opacity="1.000000" stroke="none" 
	d="
M1534.695068,63.927177 
	C1537.509033,63.271706 1541.143799,62.705463 1545.615601,62.255295 
	C1542.807007,62.919712 1539.161499,63.468056 1534.695068,63.927177 
z"/>
<path fill="#828892" opacity="1.000000" stroke="none" 
	d="
M17.429649,1517.624268 
	C16.692072,1518.174927 16.000195,1518.157227 14.789425,1518.118774 
	C15.338804,1517.750732 16.407076,1517.403320 17.429649,1517.624268 
z"/>
<path fill="#A1A0A4" opacity="1.000000" stroke="none" 
	d="
M1783.506470,2565.549072 
	C1782.839355,2565.693359 1782.463745,2565.183350 1782.295410,2564.033447 
	C1782.727173,2564.046631 1783.158936,2564.547363 1783.506470,2565.549072 
z"/>
<path fill="#A1A0A4" opacity="1.000000" stroke="none" 
	d="
M1783.876709,2615.503418 
	C1783.542358,2615.492188 1783.293213,2614.947754 1783.315918,2614.180176 
	C1783.712280,2614.294678 1783.837036,2614.632568 1783.876709,2615.503418 
z"/>
<path fill="#D6D7DB" opacity="1.000000" stroke="none" 
	d="
M3172.850098,1766.230225 
	C3173.546875,1766.582886 3173.477295,1767.191284 3172.633301,1768.058716 
	C3172.019531,1767.714233 3172.094238,1767.103516 3172.850098,1766.230225 
z"/>
<path fill="#828892" opacity="1.000000" stroke="none" 
	d="
M5.423797,1638.008179 
	C6.006376,1638.352783 5.911871,1638.986450 5.110086,1639.879761 
	C4.465372,1639.503662 4.580007,1638.889648 5.423797,1638.008179 
z"/>
<path fill="#E6DEED" opacity="1.000000" stroke="none" 
	d="
M130.902176,1533.722412 
	C130.288254,1533.340698 130.419052,1532.724365 131.338028,1531.893311 
	C131.828888,1532.265747 131.669113,1532.869019 130.902176,1533.722412 
z"/>
<path fill="#82AFB6" opacity="1.000000" stroke="none" 
	d="
M1464.324707,3254.770996 
	C1470.747192,3254.398193 1477.800293,3254.586670 1485.411377,3255.380127 
	C1478.964600,3255.767334 1471.959961,3255.550049 1464.324707,3254.770996 
z"/>
<path fill="#82AFB6" opacity="1.000000" stroke="none" 
	d="
M1434.159668,3252.926270 
	C1438.007935,3252.494873 1442.466675,3252.617676 1447.522217,3253.288574 
	C1443.669434,3253.717773 1439.219727,3253.599121 1434.159668,3252.926270 
z"/>
<path fill="#82AFB6" opacity="1.000000" stroke="none" 
	d="
M1408.283569,3250.755127 
	C1411.469604,3250.338135 1415.245361,3250.466309 1419.604370,3251.135254 
	C1416.416260,3251.550537 1412.644653,3251.425537 1408.283569,3250.755127 
z"/>
<path fill="#828892" opacity="1.000000" stroke="none" 
	d="
M4.691905,1771.839111 
	C4.365299,1771.611816 4.577809,1770.713013 4.786049,1770.299561 
	C5.483764,1770.308960 5.773243,1770.840698 5.801213,1771.942139 
	C5.739698,1772.402954 5.018511,1772.066406 4.691905,1771.839111 
z"/>
</svg>